<?xml version="1.0" encoding="utf-8"?>
<!-- Generator: Adobe Illustrator 26.2.1, SVG Export Plug-In . SVG Version: 6.00 Build 0)  -->
<svg version="1.1" id="Layer_1" xmlns="http://www.w3.org/2000/svg" xmlns:xlink="http://www.w3.org/1999/xlink" x="0px" y="0px"
	 width="138px" height="31px" viewBox="0 0 138 31" style="enable-background:new 0 0 138 31;" xml:space="preserve">
<style type="text/css">
	.st0{display:none;}
	.st1{fill:#4E66F8;}
	.st2{font-family:'Poppins-ExtraBold';}
	.st3{font-size:15px;}
</style>
<path class="st0" d="M42.9,9.5c1.1,0,2.1,0.2,2.9,0.7c0.8,0.4,1.5,1.1,1.9,1.9c0.5,0.8,0.7,1.7,0.7,2.7c0,1-0.2,1.9-0.7,2.7
	c-0.5,0.8-1.1,1.4-1.9,1.9C44.9,19.8,44,20,42.9,20h-3.9V9.5H42.9z M42.7,17.8c1,0,1.7-0.3,2.3-0.8c0.5-0.5,0.8-1.3,0.8-2.3
	S45.5,13,45,12.5c-0.5-0.5-1.3-0.8-2.3-0.8h-1.2v6.1H42.7z M53.9,9.5V20h-2.6V9.5H53.9z M62.6,20l-2.2-4h-0.6v4h-2.6V9.5h4.3
	c0.8,0,1.5,0.1,2.1,0.4c0.6,0.3,1,0.7,1.3,1.2c0.3,0.5,0.4,1.1,0.4,1.7c0,0.7-0.2,1.3-0.6,1.9c-0.4,0.6-1,0.9-1.7,1.2l2.4,4.2H62.6z
	 M59.8,14.2h1.6c0.5,0,0.8-0.1,1-0.3c0.2-0.2,0.4-0.6,0.4-1c0-0.4-0.1-0.7-0.4-1c-0.2-0.2-0.6-0.4-1-0.4h-1.6V14.2z M71.1,11.5v2.2
	h3.4v1.9h-3.4V18H75v2h-6.4V9.5H75v2H71.1z M77.7,14.7c0-1,0.2-2,0.7-2.8c0.4-0.8,1.1-1.5,1.9-1.9C81.1,9.6,82,9.4,83,9.4
	c1.2,0,2.3,0.3,3.2,1s1.5,1.6,1.8,2.7h-2.8c-0.2-0.4-0.5-0.8-0.9-1c-0.4-0.2-0.8-0.3-1.3-0.3c-0.8,0-1.4,0.3-1.9,0.8
	c-0.5,0.5-0.7,1.3-0.7,2.2s0.2,1.6,0.7,2.2s1.1,0.8,1.9,0.8c0.5,0,0.9-0.1,1.3-0.3c0.4-0.2,0.7-0.6,0.9-1H88c-0.3,1.1-0.9,2-1.8,2.7
	c-0.9,0.6-2,1-3.2,1c-1,0-1.9-0.2-2.7-0.7c-0.8-0.5-1.4-1.1-1.9-1.9C77.9,16.7,77.7,15.8,77.7,14.7z M98.7,9.5v2h-2.8V20h-2.6v-8.5
	h-2.8v-2H98.7z M106.4,20.1c-1,0-1.9-0.2-2.7-0.7c-0.8-0.5-1.5-1.1-2-1.9c-0.5-0.8-0.7-1.8-0.7-2.8s0.2-2,0.7-2.8
	c0.5-0.8,1.1-1.5,2-1.9c0.8-0.5,1.7-0.7,2.7-0.7c1,0,1.9,0.2,2.7,0.7c0.8,0.5,1.5,1.1,1.9,1.9c0.5,0.8,0.7,1.7,0.7,2.8
	s-0.2,2-0.7,2.8c-0.5,0.8-1.1,1.5-1.9,1.9C108.3,19.9,107.4,20.1,106.4,20.1z M106.4,17.7c0.8,0,1.5-0.3,2-0.8
	c0.5-0.5,0.8-1.3,0.8-2.2s-0.3-1.7-0.8-2.2c-0.5-0.6-1.2-0.8-2-0.8c-0.8,0-1.5,0.3-2,0.8c-0.5,0.6-0.8,1.3-0.8,2.2s0.2,1.7,0.8,2.2
	C104.9,17.5,105.6,17.7,106.4,17.7z M120.1,20l-2.2-4h-0.6v4h-2.6V9.5h4.3c0.8,0,1.5,0.1,2.1,0.4c0.6,0.3,1,0.7,1.3,1.2
	c0.3,0.5,0.4,1.1,0.4,1.7c0,0.7-0.2,1.3-0.6,1.9c-0.4,0.6-1,0.9-1.7,1.2L123,20H120.1z M117.3,14.2h1.6c0.5,0,0.8-0.1,1.1-0.3
	c0.2-0.2,0.4-0.6,0.4-1c0-0.4-0.1-0.7-0.4-1c-0.2-0.2-0.6-0.4-1.1-0.4h-1.6V14.2z M135,9.5l-3.6,7.1V20h-2.6v-3.5l-3.6-7.1h2.9
	l2,4.4l2-4.4H135z"/>
<path class="st1" d="M15.5,1c-2.9,0-5.7,0.9-8.1,2.4C5,5,3.2,7.3,2.1,9.9c-1.1,2.7-1.4,5.6-0.8,8.4c0.6,2.8,1.9,5.4,4,7.4
	c2,2,4.6,3.4,7.4,4c2.8,0.6,5.7,0.3,8.4-0.8c2.7-1.1,4.9-3,6.5-5.4c1.6-2.4,2.4-5.2,2.4-8.1c0-3.9-1.5-7.6-4.3-10.3
	C23,2.5,19.4,1,15.5,1L15.5,1z M8.7,22.3l3.1-9.2l6.1,6.1L8.7,22.3z M19.2,17.9l-6.1-6.1l9.2-3.1L19.2,17.9z"/>
<text transform="matrix(1 0 0 1 38.3217 20.0149)" class="st2 st3">SEA BREEZE</text>
</svg>
