<?xml version="1.0" encoding="utf-8"?>
<!-- Generator: Adobe Illustrator 26.2.1, SVG Export Plug-In . SVG Version: 6.00 Build 0)  -->
<svg version="1.1" id="Layer_1" xmlns="http://www.w3.org/2000/svg" xmlns:xlink="http://www.w3.org/1999/xlink" x="0px" y="0px"
	 viewBox="0 0 138 31" style="enable-background:new 0 0 138 31;" xml:space="preserve">
<style type="text/css">
	.st0{fill:#4E66F8;}
	.st1{font-family:'Poppins-ExtraBold';}
	.st2{font-size:15px;}
	.st3{letter-spacing:1;}
</style>
<path class="st0" d="M15.5,1c-2.9,0-5.7,0.9-8.1,2.4C5,5,3.2,7.3,2.1,9.9c-1.1,2.7-1.4,5.6-0.8,8.4c0.6,2.8,1.9,5.4,4,7.4
	c2,2,4.6,3.4,7.4,4c2.8,0.6,5.7,0.3,8.4-0.8c2.7-1.1,4.9-3,6.5-5.4c1.6-2.4,2.4-5.2,2.4-8.1c0-3.9-1.5-7.6-4.3-10.3
	C23,2.5,19.4,1,15.5,1L15.5,1z M8.7,22.3l3.1-9.2l6.1,6.1L8.7,22.3z M19.2,17.9l-6.1-6.1l9.2-3.1L19.2,17.9z"/>
<text transform="matrix(1 0 0 1 38.2388 20.5432)" class="st1 st2 st3">SEA BREEZE</text>
</svg>
